<svg width="101" height="28" viewBox="0 0 101 28" fill="none" xmlns="http://www.w3.org/2000/svg">
<path d="M22.6923 13.819C22.9595 13.0108 23.0517 12.155 22.9627 11.3085C22.8738 10.4619 22.6057 9.64399 22.1763 8.909C21.5378 7.7988 20.5635 6.91986 19.3936 6.39872C18.2238 5.87758 16.9187 5.74112 15.6663 6.009C14.955 5.21767 14.048 4.62741 13.0364 4.29747C12.0248 3.96753 10.9442 3.90954 9.9031 4.12931C8.86199 4.34908 7.89703 4.83888 7.10509 5.54954C6.31316 6.26019 5.72212 7.16668 5.39132 8.178C4.55729 8.34998 3.76941 8.69753 3.08008 9.19755C2.39075 9.69756 1.81576 10.3386 1.39332 11.078C0.748881 12.187 0.47356 13.4721 0.60711 14.7477C0.740661 16.0234 1.27617 17.2236 2.13632 18.175C1.86679 18.9827 1.77286 19.8387 1.86081 20.6856C1.94877 21.5325 2.21657 22.3509 2.64632 23.086C3.28508 24.1972 4.26022 25.0767 5.43112 25.5979C6.60203 26.1191 7.90821 26.255 9.16132 25.986C9.72715 26.6221 10.4218 27.1304 11.1993 27.4773C11.9767 27.8242 12.819 28.0017 13.6703 27.998C14.9539 27.9985 16.2044 27.5915 17.2418 26.8356C18.2791 26.0797 19.0496 25.014 19.4423 23.792C20.2762 23.6199 21.0639 23.2723 21.753 22.7723C22.4421 22.2723 23.017 21.6313 23.4393 20.892C24.0761 19.7848 24.3467 18.5046 24.2126 17.2344C24.0784 15.9642 23.5463 14.7688 22.6923 13.819ZM13.6703 26.428C12.6193 26.4294 11.6013 26.0613 10.7943 25.388L10.9353 25.307L15.7143 22.549C15.8327 22.4788 15.931 22.3792 15.9997 22.2599C16.0684 22.1406 16.1051 22.0056 16.1063 21.868V15.131L18.1263 16.299C18.1364 16.304 18.145 16.3113 18.1517 16.3204C18.1583 16.3294 18.1626 16.3399 18.1643 16.351V21.934C18.1617 23.1251 17.6874 24.2666 16.8451 25.1088C16.0029 25.951 14.8614 26.4254 13.6703 26.428ZM4.01032 22.302C3.48282 21.3916 3.29337 20.3243 3.47532 19.288L3.61732 19.373L8.40032 22.132C8.51856 22.2015 8.65319 22.2381 8.79032 22.2381C8.92745 22.2381 9.06208 22.2015 9.18032 22.132L15.0233 18.763V21.095C15.0229 21.1072 15.0197 21.1191 15.014 21.1298C15.0083 21.1406 15.0002 21.1499 14.9903 21.157L10.1503 23.948C9.11752 24.5426 7.89104 24.7032 6.73996 24.3946C5.58889 24.086 4.60722 23.3335 4.01032 22.302ZM2.75032 11.894C3.28229 10.9785 4.12009 10.2798 5.11632 9.921V15.598C5.11482 15.7352 5.15 15.8703 5.21821 15.9893C5.28643 16.1083 5.3852 16.207 5.50432 16.275L11.3193 19.629L9.29932 20.797C9.28828 20.8025 9.27614 20.8053 9.26382 20.8053C9.25151 20.8053 9.23936 20.8025 9.22832 20.797L4.39832 18.011C3.36706 17.4137 2.61457 16.432 2.30567 15.281C1.99678 14.1299 2.15667 12.9034 2.75032 11.87V11.894ZM19.3473 15.749L13.5143 12.362L15.5293 11.198C15.5404 11.1925 15.5525 11.1897 15.5648 11.1897C15.5771 11.1897 15.5893 11.1925 15.6003 11.198L20.4303 13.989C21.1693 14.4149 21.7717 15.0423 22.1674 15.7979C22.563 16.5535 22.7354 17.4061 22.6645 18.256C22.5936 19.106 22.2823 19.9182 21.767 20.5978C21.2517 21.2774 20.5536 21.7964 19.7543 22.094V16.416C19.7501 16.2791 19.7104 16.1456 19.6391 16.0287C19.5677 15.9117 19.4672 15.8154 19.3473 15.749ZM21.3573 12.726L21.2163 12.641L16.4423 9.859C16.3232 9.78961 16.1877 9.75305 16.0498 9.75305C15.9119 9.75305 15.7765 9.78961 15.6573 9.859L9.81932 13.228V10.895C9.8185 10.8833 9.82064 10.8716 9.82553 10.8609C9.83042 10.8503 9.83792 10.841 9.84732 10.834L14.6773 8.047C15.4177 7.62093 16.264 7.41437 17.1174 7.45147C17.9708 7.48858 18.796 7.76781 19.4966 8.25654C20.1971 8.74526 20.7441 9.42329 21.0737 10.2114C21.4032 10.9995 21.5015 11.8651 21.3573 12.707V12.726ZM8.71732 16.861L6.69732 15.697C6.68716 15.6909 6.67848 15.6826 6.67191 15.6728C6.66534 15.6629 6.66104 15.6517 6.65932 15.64V10.073C6.661 9.2191 6.90559 8.3833 7.36454 7.66322C7.82349 6.94314 8.47785 6.3685 9.25119 6.00642C10.0245 5.64434 10.8849 5.50977 11.7319 5.61842C12.5788 5.72706 13.3774 6.07445 14.0343 6.62L13.8923 6.7L9.11432 9.458C8.99573 9.52808 8.89724 9.62758 8.82839 9.74689C8.75953 9.8662 8.72266 10.0013 8.72132 10.139L8.71732 16.861ZM9.81432 14.496L12.4163 12.996L15.0233 14.496V17.495L12.4263 18.995L9.81932 17.495L9.81432 14.496Z" fill="white"/>
<path d="M32.7275 23.9443C31.5029 23.9443 30.402 23.666 29.4248 23.1094C28.4476 22.5527 27.6745 21.7456 27.1055 20.688C26.5365 19.6304 26.252 18.3532 26.252 16.8564C26.252 15.3473 26.5365 14.064 27.1055 13.0063C27.6745 11.9487 28.4476 11.1416 29.4248 10.585C30.402 10.0283 31.5029 9.75 32.7275 9.75C33.9521 9.75 35.05 10.0283 36.021 10.585C36.9982 11.1416 37.7713 11.9487 38.3403 13.0063C38.9093 14.064 39.1938 15.3473 39.1938 16.8564C39.1938 18.3656 38.9093 19.6489 38.3403 20.7065C37.7713 21.758 36.9982 22.562 36.021 23.1187C35.05 23.6691 33.9521 23.9443 32.7275 23.9443ZM29.2114 16.8564C29.2114 18.3161 29.5299 19.4325 30.167 20.2056C30.8102 20.9787 31.6637 21.3652 32.7275 21.3652C33.7852 21.3652 34.6325 20.9787 35.2695 20.2056C35.9128 19.4325 36.2344 18.3161 36.2344 16.8564C36.2344 15.3906 35.9128 14.2712 35.2695 13.498C34.6325 12.7188 33.7852 12.3291 32.7275 12.3291C31.6637 12.3291 30.8102 12.7188 30.167 13.498C29.5299 14.2712 29.2114 15.3906 29.2114 16.8564ZM41.3091 27.6367V13.3867H44.1387V15.1401H44.2686C44.3984 14.8556 44.5809 14.568 44.8159 14.2773C45.0571 13.9867 45.3726 13.7454 45.7622 13.5537C46.158 13.3558 46.6436 13.2568 47.2188 13.2568C47.9795 13.2568 48.6753 13.4548 49.3062 13.8506C49.9432 14.2402 50.4535 14.8309 50.8369 15.6226C51.2204 16.4142 51.4121 17.4038 51.4121 18.5913C51.4121 19.7417 51.2266 20.7158 50.8555 21.5137C50.4844 22.3053 49.9803 22.9053 49.3433 23.3135C48.7062 23.7217 47.9919 23.9258 47.2002 23.9258C46.6436 23.9258 46.1704 23.833 45.7808 23.6475C45.3973 23.4619 45.0819 23.23 44.8345 22.9517C44.5933 22.6672 44.4046 22.3826 44.2686 22.0981H44.1851V27.6367H41.3091ZM44.1201 18.582C44.1201 19.4974 44.3088 20.2365 44.686 20.7993C45.0695 21.3621 45.6076 21.6436 46.3003 21.6436C47.0054 21.6436 47.5435 21.359 47.9146 20.79C48.2856 20.2148 48.4712 19.4788 48.4712 18.582C48.4712 17.679 48.2856 16.9461 47.9146 16.3833C47.5496 15.8205 47.0116 15.5391 46.3003 15.5391C45.6076 15.5391 45.0695 15.8143 44.686 16.3647C44.3088 16.9152 44.1201 17.6543 44.1201 18.582ZM58.0176 23.9629C56.9538 23.9629 56.0384 23.7464 55.2715 23.3135C54.5046 22.8805 53.9139 22.2651 53.4995 21.4673C53.0851 20.6632 52.8779 19.7139 52.8779 18.6191C52.8779 17.5553 53.082 16.6214 53.4902 15.8174C53.9046 15.0133 54.486 14.3856 55.2344 13.9341C55.9827 13.4826 56.8641 13.2568 57.8784 13.2568C58.7938 13.2568 59.6195 13.4517 60.3555 13.8413C61.0977 14.231 61.6852 14.8154 62.1182 15.5947C62.5573 16.374 62.7769 17.3512 62.7769 18.5264V19.3057H55.7075C55.7384 20.0911 55.9673 20.7065 56.394 21.1519C56.8208 21.5972 57.3774 21.8198 58.064 21.8198C58.5402 21.8198 58.9484 21.7178 59.2886 21.5137C59.6349 21.3096 59.8823 21.0127 60.0308 20.623L62.6841 20.7993C62.48 21.7518 61.9697 22.5187 61.1533 23.1001C60.3431 23.6753 59.2979 23.9629 58.0176 23.9629ZM55.7261 17.5337H60.0215C59.9535 16.8781 59.7432 16.3586 59.3906 15.9751C59.0381 15.5916 58.5433 15.3999 57.9062 15.3999C57.263 15.3999 56.7528 15.6009 56.3755 16.0029C56.0044 16.3988 55.7879 16.909 55.7261 17.5337ZM67.5454 17.7656V23.7588H64.6694V13.3867H67.499V15.2329H67.6011C67.8361 14.6268 68.2103 14.1475 68.7236 13.7949C69.237 13.4362 69.8771 13.2568 70.644 13.2568C71.7264 13.2568 72.5923 13.6063 73.2417 14.3052C73.8973 14.9979 74.2251 15.9504 74.2251 17.1626V23.7588H71.3491V17.6729C71.3491 17.0358 71.1852 16.5379 70.8574 16.1792C70.5358 15.8205 70.0874 15.6411 69.5122 15.6411C68.9308 15.6411 68.4577 15.8298 68.0928 16.207C67.7279 16.5781 67.5454 17.0977 67.5454 17.7656ZM78.9565 23.7588H75.8208L80.5986 9.93555H84.356L89.1245 23.7588H85.998L84.9683 20.6045H79.9771L78.9565 23.7588ZM80.7192 18.3223H84.2261L82.5283 13.0898H82.417L80.7192 18.3223ZM93.689 9.93555V23.7588H90.7759V9.93555H93.689Z" fill="white"/>
</svg>
