<svg width="36" height="37" viewBox="0 0 36 37" fill="none" xmlns="http://www.w3.org/2000/svg">
<g clip-path="url(#clip0_2465_2185)">
<path d="M31.875 10.0859H4.125V30.7109H31.875V10.0859Z" stroke="#65676D" stroke-width="2.25" stroke-miterlimit="10"/>
<path d="M9.75 4.83594V13.8359" stroke="#65676D" stroke-width="2.25" stroke-miterlimit="10"/>
<path d="M26.25 4.83594V13.8359" stroke="#65676D" stroke-width="2.25" stroke-miterlimit="10"/>
<path d="M12.75 15.3359H6.75V21.3359H12.75V15.3359Z" fill="#65676D"/>
<path d="M19.5 15.3359H16.5V18.3359H19.5V15.3359Z" fill="#65676D"/>
<path d="M24.375 15.3359H21.375V18.3359H24.375V15.3359Z" fill="#65676D"/>
<path d="M29.25 15.3359H26.25V18.3359H29.25V15.3359Z" fill="#65676D"/>
<path d="M19.5 19.8359H16.5V22.8359H19.5V19.8359Z" fill="#65676D"/>
<path d="M24.375 19.8359H21.375V22.8359H24.375V19.8359Z" fill="#65676D"/>
<path d="M29.25 19.8359H26.25V22.8359H29.25V19.8359Z" fill="#65676D"/>
<path d="M19.5 24.3359H16.5V27.3359H19.5V24.3359Z" fill="#65676D"/>
<path d="M14.625 24.3359H11.625V27.3359H14.625V24.3359Z" fill="#65676D"/>
<path d="M9.75 24.3359H6.75V27.3359H9.75V24.3359Z" fill="#65676D"/>
<path d="M24.375 24.3359H21.375V27.3359H24.375V24.3359Z" fill="#65676D"/>
<path d="M29.25 24.3359H26.25V27.3359H29.25V24.3359Z" fill="#65676D"/>
</g>
<defs>
<clipPath id="clip0_2465_2185">
<rect width="30" height="27" fill="white" transform="translate(3 4.83594)"/>
</clipPath>
</defs>
</svg>
